<?xml version="1.0" encoding="iso-8859-1"?>
<!-- Uploaded to: SVG Repo, www.svgrepo.com, Generator: SVG Repo Mixer Tools -->
<!DOCTYPE svg PUBLIC "-//W3C//DTD SVG 1.1//EN" "http://www.w3.org/Graphics/SVG/1.1/DTD/svg11.dtd">
<svg fill="#000000" version="1.1" id="Capa_1" xmlns="http://www.w3.org/2000/svg" xmlns:xlink="http://www.w3.org/1999/xlink" 
	 width="800px" height="800px" viewBox="0 0 791.997 791.997"
	 xml:space="preserve">
<g>
	<g>
		<path d="M249.491,719.573c5.026-207.753,12.63-416.022,11.29-623.828c16.281-0.472,34.658-6.34,39.856-23.292
			c4.382-14.305-4.33-29.787-13.549-40.063c-9.734-10.86-24.211-18.772-39.049-16.109c-10.799,1.941-17.346,10.069-21.393,19.778
			c-4.295-8.901-10.885-16.075-21.367-17.295c-14.614-1.701-27.046,13.283-33.773,24.177c-8.119,13.162-13.549,30.535-8.841,45.811
			c5.155,16.719,22.922,21.461,38.499,18.446c-4.949,101.836-1.589,204.712-2.835,306.669c-0.636,52.039-1.28,104.087-1.383,156.127
			c-0.086,42.94-3.866,88.983,1.581,132.345c-16.796-2.131-35.569-0.215-44.616,15.998c-7.878,14.124-3.016,32.141,4.218,45.424
			c6.882,12.655,19.065,25.13,34.203,26.058c9.408,0.576,16.221-4.407,21.153-11.452c2.303,4.536,5.799,8.368,11.04,10.868
			c12.69,6.049,27.932,1.28,39.161-5.782c11.075-6.968,21.66-18.704,21.35-32.562C284.639,732.513,264.586,723.758,249.491,719.573z
			"/>
		<path d="M640.58,85.951c-3.583-11.16-12.827-16.161-23.077-17.578c6.615-7.269,11.375-15.869,10.757-26.239
			c-0.765-12.759-11.323-22.39-22.149-27.545c-9.631-4.596-22.733-6.985-32.253-0.902c-9.167,5.851-7.835,16.573-4.33,25.491
			c-56.618-3.711-115.316-1.71-171.884,1.924c-0.979-15.129-11.323-31.763-24.76-37.983c-12.354-5.713-26.668-3.11-37.854,4.004
			c-11.032,7.019-18.738,18.979-18.953,32.193c-0.206,12.87,7.896,23.017,17.845,30.423c-13.033,4.588-25.104,12.251-26.72,27.158
			c-1.529,14.176,11.367,26.565,21.9,33.791c10.232,7.011,25.577,12.904,37.554,7.105c14.451-6.993,8.076-26.204,2.234-37.983
			c34.246-4.038,68.423-7.38,102.884-9.142c30.775-1.572,63.861,1.297,94.757-2.216c-3.093,12.088-1.642,25.465,7.097,34.865
			c14.356,15.439,36.359,12.071,52.787,1.452C639.171,116.521,645.202,100.359,640.58,85.951z"/>
		<path d="M612.435,395.103c-2.363-13.996-14.804-24.692-26.995-30.517c-11.977-5.722-28.069-8.927-39.908-1.125
			c-13.076,8.617-13.824,27.983-8.737,42.167c-29.968-4.854-61.859-4.493-92.033-6.547c-36.506-2.482-73.312-2.362-108.881,6.676
			c2.423-11.393,2.088-24.392-8.179-31.772c-8.738-6.28-20.731-5.713-30.432-2.156c-9.777,3.583-19.546,11.461-21.573,22.175
			c-2.174,11.513,4.966,20.68,13.721,27.218c-7.853,3.927-14.202,9.605-15.336,19.494c-1.194,10.456,4.76,20.792,12.277,27.605
			c7.492,6.796,18.944,11.409,28.696,6.692c10.31-4.983,12.956-16.358,12.441-26.96c0.576,0.507,1.306,0.858,2.199,0.85
			c37.631-0.515,75.125,2.045,112.695,3.472c30.079,1.143,64.678,3.411,94.284-5.628c-4.089,13.223-5.077,28.705,6.874,37.451
			c11.375,8.334,27.742,4.64,39.599-0.516c12.183-5.292,24.984-14.804,28.781-28.163c3.729-13.111-5.095-22.347-15.645-28.043
			C606.746,419.735,614.771,408.97,612.435,395.103z"/>
	</g>
</g>
</svg>